<?xml version="1.0" encoding="iso-8859-1"?>
<!-- Generator: Adobe Illustrator 19.0.0, SVG Export Plug-In . SVG Version: 6.00 Build 0)  -->
<svg version="1.1" id="Capa_1" xmlns="http://www.w3.org/2000/svg" xmlns:xlink="http://www.w3.org/1999/xlink" x="0px" y="0px"
	 viewBox="0 0 512.017 512.017" style="enable-background:new 0 0 512.017 512.017;" xml:space="preserve">
<path style="fill:#CFD8DC;" d="M512.008,501.35c0,5.891-4.776,10.667-10.667,10.667H10.675c-5.891,0-10.667-4.776-10.667-10.667
	c0.289-57.657,38.075-108.413,93.227-125.227l54.613-19.2c4.048-1.49,8.594-0.395,11.52,2.773
	c19.585,22.453,46.075,37.761,75.307,43.52c7.016,1.459,14.167,2.174,21.333,2.133c37.228-0.834,72.353-17.427,96.64-45.653
	c2.975-3.084,7.467-4.165,11.52-2.773l54.613,19.2C473.934,392.937,511.72,443.693,512.008,501.35z"/>
<g>
	<path style="fill:#455A64;" d="M369.971,361.958l-19.2-36.267c-1.849-3.492-5.478-5.676-9.429-5.675H170.675
		c-3.944,0.007-7.562,2.189-9.408,5.675l-19.2,36.267c-2.115,3.987-1.491,8.874,1.557,12.203
		c28.347,32.614,69.18,51.697,112.384,52.523c43.211-0.819,84.053-19.903,112.405-52.523
		C371.462,370.832,372.086,365.946,369.971,361.958z"/>
	<path style="fill:#455A64;" d="M256.008,384.017v128h-21.333v-128c0-5.891,4.776-10.667,10.667-10.667
		C251.233,373.35,256.008,378.126,256.008,384.017z"/>
</g>
<path style="fill:#FFE082;" d="M383.56,173.883c0.235-5.333,0.448-11.584,0.448-13.867c0-5.891-4.776-10.667-10.667-10.667H138.675
	c-5.891,0-10.667,4.776-10.667,10.667c0,2.133,0.192,7.979,0.427,13.248c-15.577,11.989-23.816,31.203-21.76,50.752
	c0,29.675,13.099,52.224,30.699,53.333c19.349,64.256,66.133,106.667,118.635,106.667s99.264-42.453,118.635-106.667
	c17.6-1.067,30.699-23.616,30.699-53.333C407.417,204.636,399.143,185.592,383.56,173.883z"/>
<g>
	<path style="fill:#546E7A;" d="M224.008,234.683h-21.333c-5.891,0-10.667-4.776-10.667-10.667c0-5.891,4.776-10.667,10.667-10.667
		h21.333c5.891,0,10.667,4.776,10.667,10.667C234.675,229.908,229.899,234.683,224.008,234.683z"/>
	<path style="fill:#546E7A;" d="M309.342,234.683h-21.333c-5.891,0-10.667-4.776-10.667-10.667c0-5.891,4.776-10.667,10.667-10.667
		h21.333c5.891,0,10.667,4.776,10.667,10.667C320.008,229.908,315.233,234.683,309.342,234.683z"/>
</g>
<path style="fill:#CFD8DC;" d="M341.342,21.35c-8.322,0.007-16.56,1.667-24.235,4.885c-32.062-33.75-85.412-35.118-119.162-3.057
	c-1.045,0.993-2.064,2.012-3.057,3.057c-7.668-3.215-15.898-4.876-24.213-4.885c-35.346,0.001-63.999,28.655-63.998,64.002
	c0,18.211,7.759,35.559,21.332,47.7v26.965c0.007,3.944,2.189,7.562,5.675,9.408c38.54,16.69,80.366,24.414,122.325,22.592
	c41.959,1.822,83.785-5.902,122.325-22.592c3.485-1.846,5.668-5.464,5.675-9.408v-26.965c26.345-23.565,28.598-64.025,5.033-90.37
	C376.901,29.109,359.552,21.351,341.342,21.35z"/>
<g>
	<path style="fill:#546E7A;" d="M209.075,317.286c-9.374-0.126-18.278-4.126-24.597-11.051c-4.092-4.237-3.975-10.99,0.262-15.083
		c4.134-3.992,10.687-3.992,14.82,0c7.787,7.787,13.76,6.059,30.165-3.712c7.707-5.642,16.78-9.126,26.283-10.091
		c5.891,0,10.667,4.776,10.667,10.667s-4.776,10.667-10.667,10.667c-5.538,1.341-10.762,3.747-15.381,7.083
		C231.317,312.335,220.428,316.311,209.075,317.286z"/>
	<path style="fill:#546E7A;" d="M302.942,317.286c-11.353-0.971-22.244-4.948-31.552-11.52c-4.619-3.336-9.844-5.741-15.381-7.083
		c-5.891,0-10.667-4.776-10.667-10.667s4.776-10.667,10.667-10.667c9.503,0.965,18.576,4.448,26.283,10.091
		c16.448,9.771,22.4,11.456,30.165,3.712c4.237-4.092,10.99-3.975,15.083,0.262c3.992,4.134,3.992,10.687,0,14.82
		C321.222,313.164,312.317,317.165,302.942,317.286z"/>
</g>
<path d="M501.342,512.017H10.675c-5.891,0-10.667-4.776-10.667-10.667c0.23-57.662,37.976-108.457,93.12-125.312l54.869-19.093
	c4.015-1.393,8.473-0.27,11.349,2.859c24.328,28.17,59.449,44.719,96.661,45.547c37.201-0.828,72.313-17.368,96.64-45.525
	c2.876-3.129,7.335-4.252,11.349-2.859l54.869,19.093c55.141,16.851,92.892,67.633,93.141,125.291
	C512.008,507.241,507.233,512.017,501.342,512.017z M21.832,490.683h468.352c-4.864-44.314-35.655-81.472-78.293-94.485
	l-48.405-16.832c-27.987,29.61-66.739,46.671-107.477,47.317c-40.738-0.646-79.491-17.707-107.477-47.317l-48.405,16.832
	C57.484,409.206,26.691,446.367,21.832,490.683z"/>
<path d="M224.008,234.683h-21.333c-5.891,0-10.667-4.776-10.667-10.667c0-5.891,4.776-10.667,10.667-10.667h21.333
	c5.891,0,10.667,4.776,10.667,10.667C234.675,229.908,229.899,234.683,224.008,234.683z"/>
<path d="M309.342,234.683h-21.333c-5.891,0-10.667-4.776-10.667-10.667c0-5.891,4.776-10.667,10.667-10.667h21.333
	c5.891,0,10.667,4.776,10.667,10.667C320.008,229.908,315.233,234.683,309.342,234.683z"/>
<path d="M256.008,384.017c-52.587,0-99.264-42.453-118.635-106.667c-17.6-1.109-30.699-23.659-30.699-53.333
	c-2.056-19.549,6.183-38.763,21.76-50.752c-0.235-5.269-0.427-11.115-0.427-13.248c0-5.891,4.776-10.667,10.667-10.667
	c5.891,0,10.667,4.776,10.667,10.667c0,3.52,0.491,17.067,0.853,20.416c0.302,3.156-0.816,6.284-3.051,8.533
	c-2.255,2.23-5.373,3.36-8.533,3.093l-0.384-0.043c-7.932,8.653-11.668,20.351-10.219,32c0,20.651,8.021,32,10.667,32
	c2.986-1.856,6.657-2.241,9.963-1.045c3.231,1.144,5.715,3.771,6.677,7.061c14.912,60.117,55.381,100.651,100.693,100.651
	s85.781-40.533,100.715-100.651c1.415-5.719,7.198-9.208,12.916-7.793c1.066,0.264,2.084,0.69,3.02,1.265
	c3.435,0.512,11.349-10.795,11.349-31.488c1.452-11.649-2.284-23.348-10.219-32h-0.32c-5.862,0.585-11.088-3.693-11.673-9.555
	c-0.072-0.717-0.07-1.44,0.004-2.157c0.363-3.413,0.853-16.896,0.853-20.416c0-5.891,4.776-10.667,10.667-10.667
	c5.891,0,10.667,4.776,10.667,10.667c0,2.283-0.213,8.533-0.448,13.867c15.633,11.729,23.92,30.833,21.803,50.261
	c0,29.675-13.099,52.224-30.699,53.333C355.272,341.563,308.595,384.017,256.008,384.017z"/>
<path d="M341.342,149.35c-11.342-0.061-22.462-3.146-32.213-8.939c-5.084-3.004-6.77-9.561-3.765-14.645s9.561-6.77,14.645-3.765
	c6.442,3.885,13.811,5.963,21.333,6.016c23.564,0,42.667-19.103,42.667-42.667s-19.103-42.667-42.667-42.667
	c-7.522,0.053-14.892,2.131-21.333,6.016c-4.604,2.694-10.49,1.573-13.781-2.624c-21.224-27.688-60.875-32.928-88.563-11.704
	c-4.398,3.371-8.333,7.306-11.704,11.704c-3.309,4.292-9.31,5.421-13.952,2.624c-6.442-3.885-13.811-5.963-21.333-6.016
	c-23.564,0-42.667,19.103-42.667,42.667s19.103,42.667,42.667,42.667c7.522-0.053,14.892-2.131,21.333-6.016
	c4.988-3.135,11.572-1.633,14.707,3.354c3.135,4.988,1.633,11.572-3.354,14.707c-0.183,0.115-0.369,0.224-0.558,0.328
	c-30.399,18.035-69.662,8.012-87.697-22.387s-8.012-69.662,22.387-87.697c10.037-5.955,21.512-9.052,33.182-8.956
	c8.304,0.026,16.52,1.701,24.171,4.928c32.099-33.779,85.504-35.141,119.283-3.042c1.04,0.988,2.054,2.002,3.042,3.042
	c7.651-3.227,15.867-4.902,24.171-4.928c35.346,0,64,28.654,64,64S376.688,149.35,341.342,149.35z"/>
<path d="M256.008,192.017c-41.967,1.832-83.802-5.893-122.347-22.592c-3.477-1.851-5.651-5.469-5.653-9.408v-32
	c0-5.891,4.776-10.667,10.667-10.667c5.891,0,10.667,4.776,10.667,10.667v25.109c34.127,12.54,70.321,18.497,106.667,17.557
	c36.346,0.94,72.54-5.018,106.667-17.557v-25.109c0-5.891,4.776-10.667,10.667-10.667c5.891,0,10.667,4.776,10.667,10.667v32
	c-0.003,3.939-2.176,7.557-5.653,9.408C339.81,186.124,297.975,193.849,256.008,192.017z"/>
<path d="M181.342,85.35h-0.384c-5.887-0.208-10.491-5.149-10.283-11.037c0-0.005,0-0.009,0.001-0.014
	c1.278-15.901,8.069-30.856,19.2-42.283c4.446-3.865,11.183-3.394,15.048,1.052c3.451,3.97,3.493,9.863,0.098,13.881
	c-7.395,7.629-11.983,17.542-13.013,28.117C191.802,80.808,187.086,85.354,181.342,85.35z"/>
<path d="M151.475,377.617c-5.891-0.005-10.663-4.784-10.658-10.675c0.001-1.729,0.423-3.432,1.229-4.962l19.2-36.267
	c2.751-5.214,9.208-7.21,14.421-4.459c5.214,2.751,7.21,9.208,4.459,14.421l0,0l-19.2,36.267
	C159.073,375.441,155.434,377.626,151.475,377.617z"/>
<path d="M360.542,377.617c-3.956-0.003-7.586-2.196-9.429-5.696l-19.2-36.267c-2.751-5.214-0.755-11.67,4.459-14.421
	c5.214-2.751,11.67-0.755,14.421,4.459l19.2,36.267c2.745,5.212,0.745,11.663-4.467,14.408c-1.53,0.806-3.233,1.228-4.962,1.229
	L360.542,377.617z"/>
<path d="M245.342,512.017c-5.891,0-10.667-4.776-10.667-10.667v-128c0-5.891,4.776-10.667,10.667-10.667
	c5.891,0,10.667,4.776,10.667,10.667v128C256.008,507.241,251.233,512.017,245.342,512.017z"/>
<path d="M209.075,317.286c-9.374-0.126-18.278-4.126-24.597-11.051c-4.092-4.237-3.975-10.99,0.262-15.083
	c4.134-3.992,10.687-3.992,14.82,0c7.787,7.787,13.76,6.059,30.165-3.712c7.707-5.642,16.78-9.126,26.283-10.091
	c5.891,0,10.667,4.776,10.667,10.667s-4.776,10.667-10.667,10.667c-5.538,1.341-10.762,3.747-15.381,7.083
	C231.317,312.335,220.428,316.311,209.075,317.286z"/>
<path d="M302.942,317.286c-11.353-0.971-22.244-4.948-31.552-11.52c-4.619-3.336-9.844-5.741-15.381-7.083
	c-5.891,0-10.667-4.776-10.667-10.667s4.776-10.667,10.667-10.667c9.503,0.965,18.576,4.448,26.283,10.091
	c16.448,9.771,22.4,11.456,30.165,3.712c4.237-4.092,10.99-3.975,15.083,0.262c3.992,4.134,3.992,10.687,0,14.82
	C321.222,313.164,312.317,317.165,302.942,317.286z"/>
<g>
</g>
<g>
</g>
<g>
</g>
<g>
</g>
<g>
</g>
<g>
</g>
<g>
</g>
<g>
</g>
<g>
</g>
<g>
</g>
<g>
</g>
<g>
</g>
<g>
</g>
<g>
</g>
<g>
</g>
</svg>
