<?xml version="1.0" encoding="UTF-8"?>
<svg width="410px" height="410px" viewBox="0 0 410 410" version="1.1" xmlns="http://www.w3.org/2000/svg" xmlns:xlink="http://www.w3.org/1999/xlink">
    <!-- Generator: Sketch 39.1 (31720) - http://www.bohemiancoding.com/sketch -->
    <title>001-instagram</title>
    <desc>Created with Sketch.</desc>
    <defs>
        <polygon id="path-1" points="0.06 0.4 0.06 410.002 409.602 410.002 409.602 0.4 0.06 0.4"></polygon>
    </defs>
    <g id="Page-1" stroke="none" stroke-width="1" fill="none" fill-rule="evenodd">
        <g id="001-instagram">
            <g id="Group-3">
                <mask id="mask-2" fill="white">
                    <use xlink:href="#path-1"></use>
                </mask>
                <g id="Clip-2"></g>
                <path d="M281.602,0.4 L128,0.4 C57.32,0.4 0,57.72 0,128.4 L0,282.002 C0,352.681 57.32,410.002 128,410.002 L281.602,410.002 C352.281,410.002 409.602,352.681 409.602,282.002 L409.602,128.4 C409.602,57.72 352.281,0.4 281.602,0.4 L281.602,0.4 Z M371.199,282.002 C371.199,331.408 331.008,371.599 281.602,371.599 L128,371.599 C78.594,371.599 38.398,331.408 38.398,282.002 L38.398,128.4 C38.398,78.994 78.594,38.798 128,38.798 L281.602,38.798 C331.008,38.798 371.199,78.994 371.199,128.4 L371.199,282.002 Z" id="Fill-1" fill="#FFFFFF" mask="url(#mask-2)"></path>
            </g>
            <path d="M204.801,102.798 C148.25,102.798 102.398,148.65 102.398,205.201 C102.398,261.752 148.25,307.599 204.801,307.599 C261.352,307.599 307.199,261.752 307.199,205.201 C307.199,148.65 261.352,102.798 204.801,102.798 L204.801,102.798 Z M204.801,269.201 C169.523,269.201 140.801,240.478 140.801,205.201 C140.801,169.896 169.523,141.201 204.801,141.201 C240.078,141.201 268.801,169.896 268.801,205.201 C268.801,240.478 240.078,269.201 204.801,269.201 L204.801,269.201 Z" id="Fill-4" fill="#FFFFFF"></path>
            <path d="M328.523,95.119 C328.523,102.654 322.414,108.763 314.879,108.763 C307.344,108.763 301.234,102.654 301.234,95.119 C301.234,87.584 307.344,81.474 314.879,81.474 C322.414,81.474 328.523,87.584 328.523,95.119 L328.523,95.119 Z" id="Fill-5" fill="#FFFFFF"></path>
        </g>
    </g>
</svg>