<?xml version="1.0" encoding="UTF-8"?>
<svg width="42px" height="77px" viewBox="0 0 42 77" version="1.1" xmlns="http://www.w3.org/2000/svg" xmlns:xlink="http://www.w3.org/1999/xlink">
    <!-- Generator: Sketch 39.1 (31720) - http://www.bohemiancoding.com/sketch -->
    <title>002-facebook-logo</title>
    <desc>Created with Sketch.</desc>
    <defs></defs>
    <g id="Page-1" stroke="none" stroke-width="1" fill="none" fill-rule="evenodd">
        <path d="M40.012,0.117 L30.039,0.102 C18.836,0.102 11.598,7.531 11.598,19.027 L11.598,27.754 L1.57,27.754 C0.703,27.754 0,28.453 0,29.32 L0,41.965 C0,42.828 0.703,43.531 1.57,43.531 L11.598,43.531 L11.598,75.434 C11.598,76.297 12.297,77 13.164,77 L26.246,77 C27.113,77 27.813,76.297 27.813,75.434 L27.813,43.531 L39.535,43.531 C40.402,43.531 41.106,42.828 41.106,41.965 L41.11,29.32 C41.11,28.906 40.945,28.508 40.649,28.211 C40.356,27.918 39.957,27.754 39.539,27.754 L27.813,27.754 L27.813,20.356 C27.813,16.801 28.66,14.996 33.293,14.996 L40.008,14.992 C40.875,14.992 41.578,14.289 41.578,13.426 L41.578,1.688 C41.578,0.82 40.875,0.121 40.012,0.117 L40.012,0.117 Z" id="002-facebook-logo" fill="#FFFFFF"></path>
    </g>
</svg>