<?xml version="1.0" encoding="UTF-8"?>
<svg width="490px" height="399px" viewBox="0 0 490 399" version="1.1" xmlns="http://www.w3.org/2000/svg" xmlns:xlink="http://www.w3.org/1999/xlink">
    <!-- Generator: Sketch 39.1 (31720) - http://www.bohemiancoding.com/sketch -->
    <title>Fill 1</title>
    <desc>Created with Sketch.</desc>
    <defs></defs>
    <g id="Page-1" stroke="none" stroke-width="1" fill="none" fill-rule="evenodd">
        <g id="003-twitter-logo-silhouette" fill="#FFFFFF">
            <path d="M489.602,47.408 C471.578,55.392 452.246,60.806 431.93,63.224 C452.672,50.802 468.551,31.099 476.078,7.697 C456.621,19.197 435.141,27.552 412.258,32.08 C393.93,12.529 367.863,0.353 338.953,0.353 C283.484,0.353 238.512,45.326 238.512,100.763 C238.512,108.627 239.398,116.306 241.113,123.646 C157.652,119.455 83.645,79.47 34.113,18.709 C25.453,33.517 20.527,50.771 20.527,69.189 C20.527,104.037 38.273,134.783 65.195,152.771 C48.738,152.224 33.258,147.693 19.703,140.17 L19.703,141.423 C19.703,190.068 54.336,230.666 100.258,239.904 C91.844,242.17 82.973,243.423 73.793,243.423 C67.309,243.423 61.035,242.783 54.887,241.556 C67.676,281.482 104.754,310.517 148.688,311.314 C114.332,338.236 71.008,354.236 23.957,354.236 C15.848,354.236 7.863,353.748 0,352.861 C44.453,381.404 97.23,398.048 153.953,398.048 C338.711,398.048 439.703,245.013 439.703,112.298 L439.363,99.295 C459.098,85.22 476.168,67.537 489.602,47.408 L489.602,47.408 Z" id="Fill-1"></path>
        </g>
    </g>
</svg>